<svg width="900" height="900" viewBox="0 0 900 900" fill="none" xmlns="http://www.w3.org/2000/svg">
  <g clip-path="url(#clip0_68_103)">
    <rect width="900" height="900" fill="white" />
    <rect width="900" height="900" fill="#0E164D" />
    <path d="M540 900L0 102V900H540Z" fill="#FF2E63" />
    <path d="M343 0L900 815V0H343Z" fill="#3A4187" />
    <path
      d="M-2.62268e-05 691C79.5649 691 155.871 659.393 212.132 603.132C268.393 546.871 300 470.565 300 391C300 311.435 268.393 235.129 212.132 178.868C155.871 122.607 79.565 91 3.05176e-05 91L-1.31134e-05 391L-2.62268e-05 691Z"
      fill="#01CC88" />
    <path
      d="M900 900C820.435 900 841.02 900 763.469 900C685.918 900 719.388 900 600 900C600 820.435 631.607 744.129 687.868 687.868C744.129 631.607 820.435 600 900 600L900 900Z"
      fill="black" />
    <path
      d="M-2.27299e-05 651C68.9563 651 135.088 623.607 183.848 574.848C232.607 526.088 260 459.956 260 391C260 322.044 232.607 255.912 183.848 207.152C135.088 158.393 68.9563 131 3.05176e-05 131L2.99493e-05 144C65.5085 144 128.334 170.023 174.655 216.345C220.977 262.666 247 325.492 247 391C247 456.508 220.977 519.334 174.655 565.655C128.334 611.977 65.5084 638 -2.21617e-05 638L-2.27299e-05 651Z"
      fill="white" />
    <path
      d="M-2.27299e-05 651C68.9563 651 135.088 623.607 183.848 574.848C232.607 526.088 260 459.956 260 391C260 322.044 232.607 255.912 183.848 207.152C135.088 158.393 68.9563 131 3.05176e-05 131L2.99493e-05 144C65.5085 144 128.334 170.023 174.655 216.345C220.977 262.666 247 325.492 247 391C247 456.508 220.977 519.334 174.655 565.655C128.334 611.977 65.5084 638 -2.21617e-05 638L-2.27299e-05 651Z"
      fill="white" />
    <path
      d="M-2.27299e-05 651C68.9563 651 135.088 623.607 183.848 574.848C232.607 526.088 260 459.956 260 391C260 322.044 232.607 255.912 183.848 207.152C135.088 158.393 68.9563 131 3.05176e-05 131L2.99493e-05 144C65.5085 144 128.334 170.023 174.655 216.345C220.977 262.666 247 325.492 247 391C247 456.508 220.977 519.334 174.655 565.655C128.334 611.977 65.5084 638 -2.21617e-05 638L-2.27299e-05 651Z"
      fill="white" />
    <path
      d="M-2.27299e-05 651C68.9563 651 135.088 623.607 183.848 574.848C232.607 526.088 260 459.956 260 391C260 322.044 232.607 255.912 183.848 207.152C135.088 158.393 68.9563 131 3.05176e-05 131L2.99493e-05 144C65.5085 144 128.334 170.023 174.655 216.345C220.977 262.666 247 325.492 247 391C247 456.508 220.977 519.334 174.655 565.655C128.334 611.977 65.5084 638 -2.21617e-05 638L-2.27299e-05 651Z"
      fill="white" />
    <path
      d="M716.152 716.152C764.912 667.393 831.044 640 900 640L900 653C834.492 653 771.666 679.023 725.345 725.344C679.023 771.666 653 834.492 653 900L640 900C640 831.044 667.393 764.912 716.152 716.152Z"
      fill="white" />
    <circle cx="758" cy="125" r="300" fill="#FF2E63" />
    <path
      d="M713.263 -131.122C662.607 -122.274 615.712 -98.6033 578.509 -63.1033C541.305 -27.6032 515.464 18.1317 504.254 68.3179C493.043 118.504 496.966 170.888 515.527 218.844C534.088 266.801 566.452 308.177 608.528 337.74C650.604 367.302 700.501 383.724 751.91 384.929C803.32 386.133 853.931 372.066 897.345 344.506C940.76 316.946 975.026 277.131 995.812 230.096C1016.6 183.062 1022.97 130.919 1014.12 80.2629L1001.32 82.4998C1009.72 130.623 1003.67 180.158 983.922 224.842C964.175 269.525 931.622 307.349 890.378 333.531C849.135 359.713 801.054 373.076 752.215 371.932C703.376 370.788 655.974 355.187 616.002 327.103C576.03 299.018 545.283 259.711 527.651 214.152C510.018 168.593 506.291 118.829 516.941 71.152C527.591 23.4751 552.14 -19.9731 587.483 -53.6981C622.826 -87.4232 667.376 -109.91 715.5 -118.316L713.263 -131.122Z"
      fill="white" />
  </g>
  <defs>
    <clipPath id="clip0_68_103">
      <rect width="900" height="900" fill="white" />
    </clipPath>
  </defs>
</svg>